<?xml version="1.0" encoding="iso-8859-1"?>
<!-- Uploaded to: SVG Repo, www.svgrepo.com, Generator: SVG Repo Mixer Tools -->
<svg fill="#000000" height="800px" width="800px" version="1.1" id="Layer_1" xmlns="http://www.w3.org/2000/svg" xmlns:xlink="http://www.w3.org/1999/xlink" 
	 viewBox="0 0 271.708 271.708" xml:space="preserve">
<g>
	<g>
		<g>
			<path d="M227.552,124.714c-8.236-5.708-15.616-11.896-22.008-18.544c-11.016-11.488-27.04-17.692-51.816-19.72
				c1.804-0.608,3.592-1.352,5.272-2.448h0.004c10.46-6.82,12.752-21.424,12.848-22.044L172,60.962l-0.968-0.264
				c-0.604-0.168-14.9-3.96-25.352,2.864c-2.324,1.516-4.224,3.42-5.808,5.464c0.04-1.908-0.128-3.86-0.64-5.8
				c-3.032-11.488-16.064-17.768-16.616-18.028l-0.864-0.408l-0.548,0.78c-0.356,0.5-8.596,12.388-5.572,23.872
				c2.152,8.16,9.332,13.676,13.524,16.292c-32.564,0.504-53.02,6.824-67.82,20.876c-6.04,5.736-13.928,12.856-22.876,19.46
				C15.32,131.934,0,140.15,0,150.294c0,4.056,2.448,7.804,6.86,11.22c4.152,5.632,7.492,17.484,9.324,33.344l-1.664,6.716
				l-0.06,0.476c0,16.152,61.304,24.868,118.984,24.868l0.812-0.004l1.596,0.004c57.68,0,118.984-8.716,118.984-24.868l-1.724-7.192
				c1.588-13.776,4.336-24.408,7.744-30.684c6.892-4.096,10.852-8.74,10.852-13.88C271.708,139.338,253.844,130.638,227.552,124.714
				z M157.768,82.106c-7.076,4.604-16.4,3.844-20.884,3.108l32.16-20.964C167.908,68.654,164.844,77.49,157.768,82.106z
				 M139.244,74.194c1.788-3.248,4.236-6.488,7.676-8.728c7.06-4.608,16.388-3.848,20.876-3.112l-31.788,20.72
				C137.176,80.782,138.48,77.686,139.244,74.194z M137.036,63.806c0.84,3.188,0.672,6.46,0.052,9.48
				c-2.112,3.884-3.24,7.692-3.796,10.032c-0.044,0.084-0.1,0.192-0.144,0.272L123.9,48.506
				C127.668,50.778,135,56.082,137.036,63.806z M121.712,49.082l2.588,9.828l-5.896-1.98C119.36,53.69,120.7,50.89,121.712,49.082z
				 M117.82,59.122l7.172,2.408l0.94,3.568l-8.6-2.464C117.416,61.438,117.576,60.262,117.82,59.122z M117.3,64.982l9.304,2.664
				l1.016,3.86l-9.884-3.216C117.488,67.19,117.34,66.086,117.3,64.982z M118.604,70.958l9.704,3.16l2.648,10.048
				C127.552,82.102,121.28,77.522,118.604,70.958z M63.292,108.666c10.488-9.96,27.032-20.144,70.172-20.144
				c35.912,0,56.856,5.864,70.04,19.612c11.4,11.852,25.764,22.316,42.696,31.1c2.62,1.344,6.104,3.676,7.832,4.86
				c-0.784,0.956-2.628,2.488-6.716,3.296c-1.916,0.376-3.76,0.044-5.72-0.304c-2.324-0.416-4.736-0.852-7.344-0.08
				c-2.416,0.716-4.232,1.7-5.832,2.568c-2.992,1.628-5.36,2.908-10.784,2.264c-1.524-0.184-3.032-0.496-4.536-0.804
				c-3.384-0.696-6.868-1.416-10.624-0.76c-2.72,0.476-4.232,1.604-5.692,2.696c-0.864,0.644-1.68,1.252-2.784,1.764
				c-2.664,1.236-5.54,0.588-8.584-0.092c-2.388-0.536-4.836-1.084-7.416-0.808c-2.912,0.32-5.064,1.464-7.144,2.568
				c-1.028,0.548-2.068,1.1-3.224,1.552c-2.884,1.136-5.128,0.224-7.964-0.924c-1.76-0.712-3.756-1.52-6.056-1.808
				c-0.78-0.096-1.544-0.144-2.284-0.144c-3.344,0-6.324,0.888-9.228,1.748c-1.416,0.42-2.852,0.848-4.364,1.184
				c-4.604,1.016-7.304-0.248-10.436-1.716c-2.088-0.976-4.248-1.988-7.084-2.408c-3.4-0.5-6.26,0.392-9.02,1.26
				c-1.944,0.612-3.784,1.188-5.784,1.284c-3.352,0.16-6.228-0.872-9.252-1.964c-2.688-0.972-5.468-1.98-8.612-2.08
				c-3.492-0.116-5.584,0.496-7.604,1.084c-2.52,0.736-4.904,1.424-10.32,0.5c-1.16-0.2-2.228-0.468-3.264-0.732
				c-2.328-0.588-4.74-1.204-7.752-0.892c-1.264,0.132-2.448,0.364-3.6,0.592c-2.748,0.548-5.116,1.016-7.884-0.232
				c-0.38-0.172-0.88-0.756-1.32-1.276c-0.92-1.088-2.196-2.58-4.084-2.116c-17.08,4.14-22.176-3.872-23.52-7.596
				C36.324,133.274,52.616,118.81,63.292,108.666z M7.392,143.722c3.872-3.744,10.936-7.388,20.744-10.66
				c-3.604,2.22-7.316,4.316-11.132,6.092c-1.416,0.66-2.064,2.24-1.512,3.676c1.676,4.332,7.64,13.912,26.892,9.244l-0.332-1.376
				l0.34,1.376c0.256,0.036,0.908,0.796,1.252,1.204c0.632,0.744,1.352,1.584,2.312,2.02c3.6,1.624,6.652,1.016,9.6,0.428
				c1.068-0.212,2.164-0.432,3.336-0.552c2.504-0.26,4.476,0.24,6.764,0.82c1.108,0.28,2.248,0.568,3.484,0.776
				c6.048,1.036,8.864,0.22,11.584-0.572c1.896-0.552,3.708-1.068,6.724-0.972c2.7,0.088,5.148,0.976,7.744,1.912
				c3.156,1.148,6.412,2.332,10.36,2.132c2.364-0.116,4.46-0.776,6.492-1.412c2.576-0.808,5.004-1.568,7.756-1.16
				c2.424,0.356,4.304,1.236,6.292,2.168c3.304,1.544,6.704,3.148,12.256,1.916c1.576-0.348,3.076-0.792,4.556-1.232
				c3.416-1.016,6.648-1.964,10.352-1.512c1.928,0.244,3.664,0.944,5.34,1.62c2.02,0.816,4.084,1.652,6.408,1.652
				c1.144,0,2.356-0.204,3.656-0.712c1.26-0.492,2.4-1.092,3.524-1.692c1.928-1.024,3.752-1.992,6.124-2.252
				c2.088-0.232,4.224,0.248,6.48,0.756c3.376,0.752,6.864,1.544,10.4-0.1c1.372-0.636,2.388-1.396,3.284-2.064
				c1.36-1.016,2.432-1.816,4.488-2.176c3.192-0.564,6.292,0.072,9.564,0.744c1.584,0.324,3.164,0.648,4.768,0.84
				c6.328,0.752,9.308-0.868,12.476-2.584c1.548-0.84,3.148-1.712,5.28-2.34c1.956-0.584,3.944-0.228,6.04,0.152
				c2.128,0.38,4.34,0.776,6.764,0.296c7.916-1.568,9.284-5.648,9.416-6.104l0.272-0.964l-0.816-0.58
				c-0.22-0.16-5.452-3.868-9.236-5.812c-3.372-1.748-6.612-3.584-9.776-5.464c13.08,3.776,22.272,8.168,26.792,12.7
				c0.82,1.132,1.268,2.264,1.268,3.392c0,12.58-52.192,26.044-129.884,26.044S6.004,159.922,6.004,147.346
				c0-1.188,0.496-2.384,1.404-3.576C7.4,143.758,7.4,143.738,7.392,143.722z M249.136,194.762l-0.04,0.356l0.092,0.368
				c-11.44,13.524-49.672,16.732-57.424,17.24c-37.852,2.48-74.944,4.332-112.604-0.14l-0.264,2.248
				c16.716,1.988,33.3,2.736,49.892,2.736c20.964,0,41.932-1.192,63.128-2.584c10.772-0.704,45.168-3.948,57.948-16.788l1.008,4.064
				c-0.668,9.832-47.712,20.688-115.008,20.688l-1.216-0.004l-1.196,0.004c-67.296,0-114.34-10.856-115.008-20.688l0.984-3.968
				c4.48,5.492,14.14,7.908,20.428,9.468l1.676,0.42l0.564-2.196l-1.692-0.424c-6.588-1.636-17.136-4.276-20.232-10.26l0.048-0.188
				l-0.04-0.356c-1.068-9.408-3.012-20.704-6.508-29.028c23.4,12.12,73.392,19.012,122.196,19.012
				c46.82,0,94.732-6.34,119.212-17.56C251.936,175.342,250.144,185.886,249.136,194.762z M135.856,180.778
				c-78.892,0-131.888-15.76-131.888-30.484c0.004-0.324,0.052-0.652,0.104-0.976c4.8,16.528,69.332,26.336,131.832,26.336
				c62.216,0,126.44-9.72,131.752-26.116c0.032,0.252,0.084,0.504,0.084,0.756C267.74,165.014,214.748,180.778,135.856,180.778z"/>
			<path d="M48.02,209.726c6.628,1.432,13.524,2.684,20.492,3.724l0.336-2.244c-6.92-1.032-13.768-2.276-20.352-3.696L48.02,209.726
				z"/>
			<path d="M100.48,108.078l1.084-2.916l-2.708,1.532c-7.8,4.42-14.148,13.964-14.148,21.276v1.532l1.464-0.448
				C93.292,126.878,99.764,109.994,100.48,108.078z M96.956,110.718c-2.248,5.168-6.096,12.644-9.816,15.32
				C87.972,120.846,91.948,114.698,96.956,110.718z"/>
			<path d="M127.724,135.178l1.184-0.98c5.736-4.74,5.236-22.812,5.16-24.856l-0.112-3.112l-1.916,2.456
				c-5.508,7.076-7.708,18.324-4.904,25.076L127.724,135.178z M131.828,113.13c-0.092,5.636-0.78,14.012-3.188,17.916
				C127.42,125.93,128.732,118.726,131.828,113.13z"/>
			<path d="M184.888,127.818l1.492,0.344l-0.104-1.528c-0.532-7.424-15.532-17.516-17.24-18.644l-2.6-1.712l0.892,2.984
				C169.884,117.858,177.764,126.182,184.888,127.818z M183.548,125.018c-4.872-1.98-9.972-7.228-12.728-13
				C175.352,115.37,181.772,120.794,183.548,125.018z"/>
		</g>
	</g>
</g>
</svg>