<?xml version="1.0" encoding="iso-8859-1"?>
<!-- Uploaded to: SVG Repo, www.svgrepo.com, Generator: SVG Repo Mixer Tools -->
<svg fill="#000000" height="800px" width="800px" version="1.1" id="Layer_1" xmlns="http://www.w3.org/2000/svg" xmlns:xlink="http://www.w3.org/1999/xlink" 
	 viewBox="0 0 305.786 305.786" xml:space="preserve">
<g>
	<g>
		<g>
			<path d="M248.353,150.233c0-0.06,0.012-0.116,0.012-0.176c0-3.068-1.248-6.016-3.464-8.812c2.116-2.484,3.336-5.052,3.46-7.672
				c0.136-2.932-0.904-5.78-2.888-8.52c1.884-2.596,2.892-5.328,2.892-8.152c0-6.68-5.648-12.816-15.34-17.94
				c0.06-2.94-0.448-5.612-1.688-7.916c-3.156-5.852-10.14-9.092-15.876-11.264c-1.188-0.448-2.396-0.884-3.6-1.316
				c-4.748-1.708-9.656-3.472-13.332-6.248c-3.628-2.74-5.364-11.644-3.476-16.312c0.296-0.452,0.548-0.94,0.756-1.46l-3.528-1.844
				c-0.272,0.416-0.516,0.864-0.736,1.34c-1.944,2.688-6.844,3.868-11.596,5.016c-1.236,0.3-2.456,0.592-3.616,0.912
				c-6.308,1.732-12.112,5.12-16.876,9.576c-2.416-2.112-5.468-4.008-9.132-5.66c2.552-5.144,2.564-10.772,0.036-15.94
				c-1.128-2.312-4.58-0.288-3.452,2.02c1.892,3.872,1.84,8.232-0.112,12.072c-0.072,0.14-0.076,0.272-0.112,0.408
				c-6.728-2.48-12.588-3.156-17.464-2.156c-3.192-6.236-7.908-12.756-14.832-17.168c-16.868-10.74-39.664-4.436-40.624-4.164
				l-1.696,0.484l0.28,1.74c0.152,0.944,3.8,22.26,18.868,33.524c-18.06,5.396-27.564,26.168-27.964,27.056l-0.684,1.524
				l1.252,0.844c-4.82,3.936-7.516,8.276-7.516,12.876c0,2.892,1.048,5.68,3.02,8.332c-1.936,2.628-3.02,5.384-3.02,8.244
				c0,2.872,1.02,5.688,2.984,8.404c-1.904,2.608-2.984,5.336-2.984,8.172c0,0.14,0.024,0.272,0.028,0.412
				c-18.7,6.604-33.928,15.136-43.832,25.148c-8.38,8.476-12.584,17.54-12.5,26.944c0.348,36.7,68.872,66.452,152.888,66.452h0.616
				c60.944-0.104,115.812-15.832,139.78-40.068c8.38-8.476,12.584-17.54,12.5-26.948
				C305.593,181.065,283.153,162.413,248.353,150.233z M247.029,161.153c27.148,9.024,43.18,22.44,43.18,38.456
				c0,31.992-61.332,58.012-136.716,58.012S16.781,231.593,16.781,199.605c0-15.36,14.944-28.324,40.392-37.32
				c-0.536,1.424-0.864,2.872-0.864,4.356c0,2.856,1.024,5.62,2.956,8.248c-1.888,2.596-2.956,5.316-2.956,8.136
				c0,0.264,0.04,0.52,0.056,0.784c-5.556,5.66-8.348,11.704-8.292,17.964c0.236,24.708,46.484,44.74,103.188,44.74h0.416
				c41.164-0.072,78.212-10.684,94.384-27.036c5.628-5.688,8.452-11.772,8.392-18.076c-0.052-5.428-2.36-10.62-6.48-15.432
				c0.244-0.968,0.388-1.948,0.388-2.94c0-2.824-1.068-5.54-2.956-8.136c1.932-2.628,2.956-5.392,2.956-8.252
				C248.361,164.765,247.881,162.937,247.029,161.153z M210.505,82.229c1.188,0.428,2.372,0.852,3.54,1.296
				c4.688,1.772,11.216,4.68,13.768,9.42c1.56,2.892,1.712,6.648,0.456,11.16c-0.86,3.1-2.012,5.156-3.74,6.664
				c-2.96,2.588-7.52,3.544-12.748,4.444c-0.66,0.112-1.296,0.212-1.952,0.324c3.336-7.576,5.924-17.392,2.648-25.148
				c-1.7-4.032-4.36-5.404-7.916-7.736c-3.304-2.164-5.752-4.304-7.608-6.696C200.973,78.749,205.797,80.537,210.505,82.229z
				 M196.289,79.693c2.396,2.504,5.592,3.616,8.332,5.608c10.276,7.472,6.992,21.196,2.532,30.676
				c-6.752,1.116-13.26,2.036-19.5,2.532c3.14-4.324,4.54-9.436,3.864-15.172c-0.748-6.328-3.404-12.04-3.872-18.488
				c-0.528-7.256,0.684-14.508,2.152-21.616C190.621,69.197,191.993,75.197,196.289,79.693z M187.489,60.921
				c0.172-0.06,0.34-0.128,0.508-0.192c-1.936,9.132-3.572,18.512-2.232,27.844c1.6,11.14,6.732,20.964-1.208,30.144
				c-7.792,0.432-15.184,0.12-22.12-1.528c-8.712-20.476,13.544-40.204,24.956-55.268C187.669,61.557,187.645,61.209,187.489,60.921
				z M177.389,63.725c1.12-0.308,2.304-0.592,3.5-0.88c1.208-0.292,2.448-0.62,3.676-0.956c-5.6,7.204-12.904,14.992-18.444,23.336
				c0.512-4.74-0.792-9.064-3.848-12.848C166.553,68.369,171.721,65.281,177.389,63.725z M133.645,63.573
				c3.596,0,7.78,0.92,12.532,2.768c13.748,5.344,18.732,13.16,14.816,23.232c-4.712,12.12-22.188,28.408-33.224,24.108
				c-11.032-4.288-12.924-28.1-8.212-40.22C122.117,66.877,126.837,63.573,133.645,63.573z M159.677,116.369
				c-1.044-0.308-2.108-0.556-3.132-0.932c-1.46-0.532-3.084-1.216-4.048-2.212c-0.956-0.988-1.312-2.396-1.516-3.848
				c2.956-2.592,5.648-5.52,7.916-8.5C157.737,105.877,157.797,111.041,159.677,116.369z M112.257,46.365
				c5.984,3.812,10.124,9.52,13.048,15.096c-2.712,1.252-5.02,3.152-6.84,5.752L78.649,41.845
				C85.601,40.585,100.745,39.033,112.257,46.365z M77.125,44.237l39.912,25.428c-0.4,0.776-0.844,1.496-1.18,2.36
				c-0.412,1.064-0.768,2.264-1.092,3.512c-5.364-1.684-11.64-2.776-18.036-2.04c-0.432-0.24-0.88-0.44-1.304-0.708
				C83.905,65.453,78.921,51.073,77.125,44.237z M88.845,96.853l7.144-2.04l-3.872,14.652c-2.376-0.072-4.712-0.376-6.956-0.844
				L88.845,96.853z M82.949,108.109c-5.916-1.528-10.948-3.964-13.916-5.596l17.204-4.916L82.949,108.109z M98.529,94.085
				l7.68-2.192l-5.012,16.54c-2.224,0.632-4.484,0.932-6.728,1.02L98.529,94.085z M108.801,91.149l4.436-1.268
				c0.08,3.592,0.48,7.232,1.268,10.664c-3.024,2.8-6.584,5.236-10.628,6.86L108.801,91.149z M92.657,78.293
				c7.312-2.092,14.976-0.848,21.284,1.184c-0.412,2.532-0.664,5.248-0.712,8.052l-44.82,12.804
				C71.657,94.545,79.997,81.909,92.657,78.293z M67.509,106.225c5.068,2.772,14.912,7.26,25.584,7.26
				c3.052,0,6.168-0.368,9.26-1.248c5.18-1.48,9.628-4.252,13.4-7.456c2.064,5.848,5.46,10.612,10.58,12.6
				c1.74,0.676,3.548,0.984,5.392,0.984c5.228,0,10.744-2.504,15.784-6.196c0.388,1.352,0.992,2.68,2.108,3.836
				c1.524,1.58,3.664,2.5,5.552,3.192c7.396,2.704,15.2,3.74,23.428,3.74c1.308,0,2.66-0.1,3.988-0.148
				c0.332,0.176,0.74,0.184,1.112-0.04c9.092-0.428,18.656-1.848,28.764-3.592c4.496-0.776,10.656-1.836,14.7-5.376
				c3.044-2.66,4.288-6.184,4.96-8.6c0.188-0.672,0.264-1.296,0.396-1.944c7.596,4.272,11.844,9.02,11.844,13.672
				c0,13.884-36.98,28.748-92.028,28.748s-92.028-14.864-92.028-28.748C60.309,113.313,62.885,109.669,67.509,106.225z
				 M62.085,128.305c13.308,12.576,48.224,21.336,90.248,21.336c42.244,0,77.296-8.856,90.448-21.536
				c1.104,1.764,1.672,3.528,1.588,5.28c-0.2,4.284-4.844,8.82-12.804,13c-0.008,0.012-0.016,0.024-0.02,0.036
				c-1.616,0.876-3.092,1.588-7.044,3.496c-1.872,0.904-2.212,3.22-2.604,5.9c-0.496,3.352-1.012,5.96-2.784,6.516
				c-3.332,1.044-5.016-0.312-6.652-1.628c-1.316-1.052-3.752-3.012-6.24-0.468c-0.976,1-1.008,2.36-1.036,3.452
				c-0.04,1.672-0.144,2.252-1.204,2.712c-1.34,0.588-1.372,0.532-2.176-0.652c-0.764-1.128-2.188-3.248-5.312-2.596
				c-2.26,0.46-2.888,2.744-3.344,4.408c-0.156,0.56-0.412,1.496-0.6,1.712c-1.476,1.396-2.012,1.412-2.108,1.392
				c-0.06-0.008-0.252-0.148-0.492-0.536c-0.204-0.372-0.24-1.772-0.26-2.608c-0.06-2.364-0.136-5.304-2.612-6.236
				c-0.904-0.336-1.76-0.208-2.636-0.084c-6.112,0.664-11.816,0.708-18.416,0.76c-2.132,0.016-4.34,0.036-6.648,0.076
				c-0.084-0.016-0.164-0.028-0.248-0.044c-2.256,0.1-4.528,0.18-6.832,0.228c-38.664,0.776-74.716-7.532-87.612-20.176
				c-2.908-2.848-4.38-5.732-4.38-8.572C60.305,131.753,60.965,130.025,62.085,128.305z M152.337,211.773
				c-55.048,0-92.028-14.864-92.028-28.748c0-1.68,0.628-3.372,1.704-5.052c13.248,12.616,48.22,21.412,90.328,21.412
				c42.112,0,77.088-8.8,90.332-21.416c1.076,1.68,1.692,3.376,1.692,5.056C244.365,196.909,207.385,211.773,152.337,211.773z
				 M244.365,199.605c0,13.884-36.98,28.748-92.028,28.748c-55.048,0-92.028-14.864-92.028-28.748c0-1.728,0.628-3.468,1.752-5.192
				c13.288,12.588,48.224,21.36,90.276,21.36c42.04,0,76.968-8.768,90.264-21.352C243.733,196.145,244.365,197.881,244.365,199.605z
				 M152.337,195.385c-55.048,0-92.028-14.864-92.028-28.748c0-1.72,0.656-3.452,1.78-5.168
				c13.308,12.576,48.224,21.336,90.248,21.336c42.04,0,76.968-8.768,90.264-21.352c1.132,1.724,1.764,3.46,1.764,5.184
				C244.365,180.521,207.385,195.385,152.337,195.385z M152.341,178.797c-55.048,0-92.028-14.864-92.028-28.748
				c0-1.68,0.624-3.368,1.696-5.048c13.296,12.916,47.08,21.276,85.2,21.276c1.712,0,3.44-0.016,5.168-0.052
				c0.408-0.008,0.8-0.04,1.208-0.052c4.508-0.164,8.632-0.212,12.472-0.244c6.428-0.052,12.5-0.1,18.808-0.784l0.472-0.064
				c0.052-0.008,0.112-0.016,0.176-0.024c0.156,0.588,0.188,1.792,0.208,2.56c0.044,1.724,0.084,3.352,0.844,4.584
				c1.08,1.756,2.42,2.272,3.356,2.396c0.184,0.024,0.368,0.036,0.548,0.036c1.924,0,3.564-1.308,4.808-2.488
				c0.976-0.924,1.356-2.312,1.692-3.536c0.152-0.56,0.412-1.496,0.312-1.572c0.5-0.108,0.528-0.104,1.236,0.932
				c0.872,1.288,2.684,3.964,7.044,2.068c3.472-1.508,3.548-4.596,3.592-6.252c0.004-0.18,0.008-0.412,0.02-0.612
				c0.248,0.176,0.552,0.42,0.8,0.62c1.86,1.492,4.968,4,10.324,2.32c4.288-1.344,5-6.188,5.52-9.724
				c0.16-1.08,0.4-2.712,0.408-2.904c6.436-3.108,6.436-3.108,10.884-5.664l-0.084-0.148c1.864-1.164,3.592-2.348,5.024-3.572
				c1.468,1.972,2.32,3.968,2.32,5.948C244.369,163.933,207.389,178.797,152.341,178.797z M152.337,232.341
				c53.848,0,96.028-14.384,96.028-32.748c0-2.86-1.088-5.616-3.02-8.244c0.728-0.964,1.312-1.96,1.784-2.976
				c3.184,4.116,5.016,8.488,5.06,13.044c0.056,5.676-2.548,11.216-7.736,16.46c-15.768,15.944-52.184,26.292-92.776,26.36
				c-0.144,0-0.276,0-0.42,0c-55.46,0-100.692-19.024-100.912-42.492c-0.052-5.2,2.18-10.272,6.528-15.12
				c0.504,1.632,1.336,3.224,2.492,4.768c-1.936,2.616-3.056,5.352-3.056,8.2C56.309,217.953,98.489,232.341,152.337,232.341z
				 M290.469,226.157c-23.26,23.52-77.02,38.788-136.964,38.892h-0.624c-81.832,0-148.58-27.996-148.904-62.524
				c-0.08-8.308,3.74-16.42,11.348-24.116c9.432-9.54,23.952-17.684,41.8-24.044c0.508,1.372,1.228,2.716,2.2,4.024
				c-0.284,0.384-0.56,0.772-0.804,1.16c-27.688,9.428-44.008,23.4-44.008,40.056c0,33.24,62.348,60.284,138.988,60.284
				s138.988-27.044,138.988-60.284c0-17.708-17.328-32.156-46.948-41.492c0.968-1.352,1.688-2.744,2.16-4.16
				c32.86,11.468,53.94,28.74,54.124,48.088C301.901,210.345,298.081,218.461,290.469,226.157z"/>
			<path d="M82.957,129.125l1-2.652c-7.896-2.984-17.004-7.34-17.388-14.624l-2.832,0.148
				C64.269,122.065,77.365,127.009,82.957,129.125z"/>
			<path d="M104.505,132.253c-4.452-0.94-8.9-2.056-13.224-3.32l-0.796,2.72c4.392,1.288,8.912,2.42,13.432,3.376L104.505,132.253z"
				/>
			<path d="M197.565,135.957l1.852-0.264c14.516-2.072,41.544-5.928,42.836-23.664l-2.828-0.208
				c-1.128,15.456-27.66,19.244-40.412,21.064l-1.864,0.268c-31.308,4.564-58.668,4.82-83.644,0.78l-0.452,2.796
				c11.888,1.92,24.296,2.884,37.4,2.884C165.205,139.613,180.833,138.393,197.565,135.957z"/>
			<path d="M142.701,91.973c0.152-0.004,0.3-0.008,0.452-0.012c2.568-0.068,2.58-4.068,0-4c-0.152,0.004-0.3,0.008-0.452,0.012
				C140.129,88.041,140.121,92.041,142.701,91.973z"/>
			<path d="M139.025,77.557c-0.004-0.152-0.008-0.3-0.012-0.452c-0.064-2.568-4.068-2.58-4,0c0.004,0.152,0.008,0.3,0.012,0.452
				C135.093,80.129,139.093,80.137,139.025,77.557z"/>
			<path d="M148.493,77.329c0.152-0.004,0.3-0.008,0.452-0.012c2.568-0.064,2.58-4.068,0-4c-0.152,0.004-0.3,0.008-0.452,0.012
				C145.925,73.397,145.913,77.397,148.493,77.329z"/>
			<path d="M153.073,88.169c0.152-0.004,0.3-0.008,0.452-0.012c2.568-0.064,2.58-4.068,0-4c-0.152,0.004-0.3,0.008-0.452,0.012
				C150.505,84.233,150.497,88.233,153.073,88.169z"/>
			<path d="M131.437,106.641c-0.152,0.004-0.3,0.008-0.452,0.012c-2.568,0.068-2.58,4.068,0,4c0.152-0.004,0.3-0.008,0.452-0.012
				C134.005,110.577,134.017,106.577,131.437,106.641z"/>
			<path d="M125.985,99.265c0.152-0.004,0.3-0.008,0.452-0.012c2.568-0.068,2.58-4.068,0-4c-0.152,0.004-0.3,0.008-0.452,0.012
				C123.417,95.329,123.405,99.329,125.985,99.265z"/>
			<path d="M130.985,90.985c0.152-0.004,0.3-0.008,0.452-0.012c2.568-0.068,2.58-4.068,0-4c-0.152,0.004-0.3,0.008-0.452,0.012
				C128.417,87.053,128.405,91.053,130.985,90.985z"/>
			<path d="M128.829,73.005c0.152-0.004,0.3-0.008,0.452-0.012c2.568-0.064,2.58-4.068,0-4c-0.152,0.004-0.3,0.008-0.452,0.012
				C126.257,69.069,126.249,73.069,128.829,73.005z"/>
			<path d="M122.813,78.749c-2.568,0.064-2.58,4.068,0,4c0.152-0.004,0.3-0.008,0.452-0.012c2.568-0.064,2.58-4.068,0-4
				C123.113,78.741,122.965,78.745,122.813,78.749z"/>
			<path d="M142.701,102.285c0.152-0.004,0.3-0.008,0.452-0.012c2.568-0.064,2.58-4.068,0-4c-0.152,0.004-0.3,0.008-0.452,0.012
				C140.129,98.349,140.121,102.353,142.701,102.285z"/>
		</g>
	</g>
</g>
</svg>